<svg width="443" height="351" viewBox="0 0 443 351" fill="none" xmlns="http://www.w3.org/2000/svg">
<g filter="url(#filter0_d_254_350)">
<rect width="418.248" height="325.446" rx="8" transform="matrix(0.999204 0.0398981 -0.0514965 0.998673 21.0854 0)" fill="#E9E2BD"/>
</g>
<rect x="0.473953" y="0.519371" width="400.534" height="311.441" rx="7.5" transform="matrix(0.999197 0.0400581 -0.0512911 0.998684 29.1296 6.80982)" stroke="#EEA38D"/>
<mask id="mask0_254_350" style="mask-type:alpha" maskUnits="userSpaceOnUse" x="4" y="1" width="435" height="342">
<rect width="418.249" height="325.447" rx="8" transform="matrix(0.999197 0.0400581 -0.0512911 0.998684 20.6924 1.22656)" fill="#E9E2BD"/>
</mask>
<g mask="url(#mask0_254_350)">
<path d="M-55.2716 -139.521L-31.8411 -138.114L-59.2541 396.235L-82.6846 394.828L-55.2716 -139.521Z" fill="#EEA38D" fill-opacity="0.1"/>
<path d="M129.733 -133.395L153.164 -131.988L125.751 402.361L102.32 400.954L129.733 -133.395Z" fill="#EEA38D" fill-opacity="0.1"/>
<path d="M363.821 -141.565L387.251 -140.158L359.839 394.191L336.408 392.784L363.821 -141.565Z" fill="#EEA38D" fill-opacity="0.1"/>
<path d="M37.2304 -143.606L60.6608 -142.199L33.2478 392.15L9.81738 390.743L37.2304 -143.606Z" fill="#EEA38D" fill-opacity="0.1"/>
<path d="M222.235 -137.48L245.666 -136.073L218.253 398.276L194.822 396.869L222.235 -137.48Z" fill="#EEA38D" fill-opacity="0.1"/>
<path d="M456.323 -145.65L479.754 -144.243L452.341 390.106L428.911 388.699L456.323 -145.65Z" fill="#EEA38D" fill-opacity="0.1"/>
<path d="M-11.8528 -131.352L11.5777 -129.944L-15.8353 404.405L-39.2657 402.998L-11.8528 -131.352Z" fill="#EEA38D" fill-opacity="0.1"/>
<path d="M173.153 -125.225L196.583 -123.817L169.17 410.532L145.74 409.125L173.153 -125.225Z" fill="#EEA38D" fill-opacity="0.1"/>
<path d="M407.24 -133.395L430.671 -131.988L403.258 402.361L379.828 400.954L407.24 -133.395Z" fill="#EEA38D" fill-opacity="0.1"/>
<path d="M80.6502 -135.437L104.081 -134.029L76.6676 400.32L53.2372 398.913L80.6502 -135.437Z" fill="#EEA38D" fill-opacity="0.1"/>
<path d="M314.738 -143.606L338.169 -142.199L310.756 392.15L287.325 390.743L314.738 -143.606Z" fill="#EEA38D" fill-opacity="0.1"/>
<path d="M265.655 -129.31L289.086 -127.902L261.673 406.447L238.242 405.04L265.655 -129.31Z" fill="#EEA38D" fill-opacity="0.1"/>
<path d="M499.743 -137.48L523.173 -136.073L495.76 398.276L472.33 396.869L499.743 -137.48Z" fill="#EEA38D" fill-opacity="0.1"/>
<path d="M-79.542 476.275L-77.9959 450.916L544.366 477.914L542.82 503.273L-79.542 476.275Z" fill="#EEA38D" fill-opacity="0.15"/>
<path d="M-73.1372 276.069L-71.5911 250.71L550.77 277.708L549.224 303.067L-73.1372 276.069Z" fill="#EEA38D" fill-opacity="0.15"/>
<path d="M-83.5781 22.8239L-82.032 -2.53513L540.329 24.4632L538.783 49.8222L-83.5781 22.8239Z" fill="#EEA38D" fill-opacity="0.15"/>
<path d="M-84.6655 376.206L-83.1194 350.847L539.242 377.845L537.696 403.204L-84.6655 376.206Z" fill="#EEA38D" fill-opacity="0.15"/>
<path d="M-78.2607 176L-76.7146 150.641L545.647 177.639L544.101 202.998L-78.2607 176Z" fill="#EEA38D" fill-opacity="0.15"/>
<path d="M-88.7021 -77.2455L-87.1611 -102.605L535.197 -75.5149L533.656 -50.1555L-88.7021 -77.2455Z" fill="#EEA38D" fill-opacity="0.15"/>
<path d="M-70.1997 429.255L-68.6536 403.896L553.708 430.894L552.162 456.253L-70.1997 429.255Z" fill="#EEA38D" fill-opacity="0.15"/>
<path d="M-63.7954 229.046L-62.2493 203.687L560.112 230.685L558.566 256.044L-63.7954 229.046Z" fill="#EEA38D" fill-opacity="0.15"/>
<path d="M-74.2363 -24.1986L-72.6902 -49.5576L549.671 -22.5593L548.125 2.79974L-74.2363 -24.1986Z" fill="#EEA38D" fill-opacity="0.15"/>
<path d="M-75.3232 329.187L-73.7771 303.828L548.584 330.826L547.038 356.185L-75.3232 329.187Z" fill="#EEA38D" fill-opacity="0.15"/>
<path d="M-85.7632 75.9411L-84.2171 50.5821L538.144 77.5804L536.598 102.939L-85.7632 75.9411Z" fill="#EEA38D" fill-opacity="0.15"/>
<path d="M-68.918 128.976L-67.3718 103.617L554.99 130.616L553.444 155.975L-68.918 128.976Z" fill="#EEA38D" fill-opacity="0.15"/>
<path d="M-79.3579 -124.267L-77.8118 -149.626L544.55 -122.628L543.004 -97.2687L-79.3579 -124.267Z" fill="#EEA38D" fill-opacity="0.15"/>
</g>
<defs>
<filter id="filter0_d_254_350" x="0.727051" y="0.3125" width="441.872" height="349.077" filterUnits="userSpaceOnUse" color-interpolation-filters="sRGB">
<feFlood flood-opacity="0" result="BackgroundImageFix"/>
<feColorMatrix in="SourceAlpha" type="matrix" values="0 0 0 0 0 0 0 0 0 0 0 0 0 0 0 0 0 0 127 0" result="hardAlpha"/>
<feOffset dy="4"/>
<feGaussianBlur stdDeviation="2"/>
<feComposite in2="hardAlpha" operator="out"/>
<feColorMatrix type="matrix" values="0 0 0 0 0 0 0 0 0 0 0 0 0 0 0 0 0 0 0.25 0"/>
<feBlend mode="normal" in2="BackgroundImageFix" result="effect1_dropShadow_254_350"/>
<feBlend mode="normal" in="SourceGraphic" in2="effect1_dropShadow_254_350" result="shape"/>
</filter>
</defs>
</svg>
