<svg width="212" height="212" viewBox="0 0 212 212" fill="none" xmlns="http://www.w3.org/2000/svg">
<circle cx="106.098" cy="106.099" r="102.402" stroke="#9B5C49" stroke-width="7"/>
<line x1="0.196289" y1="108.911" x2="65.1822" y2="108.911" stroke="#9B5C49" stroke-width="4"/>
<line x1="147.016" y1="108.911" x2="212.001" y2="108.911" stroke="#9B5C49" stroke-width="4"/>
<path d="M94.9325 115.285C93.7578 115.285 92.7019 115.061 91.7646 114.611C90.8336 114.155 90.09 113.53 89.5339 112.736C88.9778 111.943 88.681 111.037 88.6436 110.018H91.4553C91.524 110.843 91.8896 111.521 92.5519 112.052C93.2142 112.583 94.0078 112.849 94.9325 112.849C95.6698 112.849 96.3228 112.68 96.8914 112.343C97.4662 111.999 97.9161 111.527 98.241 110.927C98.5722 110.327 98.7378 109.643 98.7378 108.875C98.7378 108.094 98.5691 107.397 98.2316 106.785C97.8942 106.172 97.4287 105.691 96.8351 105.341C96.2478 104.991 95.573 104.813 94.8107 104.807C94.2296 104.807 93.6454 104.907 93.058 105.107C92.4707 105.307 91.9958 105.569 91.6334 105.894L88.981 105.501L90.0588 95.8281H100.612V98.3118H92.4675L91.8583 103.682H91.9708C92.3457 103.32 92.8424 103.017 93.461 102.773C94.0859 102.529 94.7544 102.408 95.4668 102.408C96.6352 102.408 97.6755 102.686 98.5878 103.242C99.5063 103.798 100.228 104.557 100.753 105.519C101.284 106.475 101.546 107.575 101.54 108.818C101.546 110.062 101.265 111.171 100.697 112.146C100.134 113.12 99.3532 113.889 98.3535 114.451C97.36 115.007 96.2197 115.285 94.9325 115.285Z" fill="#9B5C49"/>
<path d="M105.001 115.023V100.627H107.803V115.023H105.001ZM106.416 98.4056C105.929 98.4056 105.51 98.2431 105.16 97.9182C104.817 97.587 104.645 97.1934 104.645 96.7373C104.645 96.2749 104.817 95.8812 105.16 95.5563C105.51 95.2252 105.929 95.0596 106.416 95.0596C106.904 95.0596 107.319 95.2252 107.663 95.5563C108.013 95.8812 108.188 96.2749 108.188 96.7373C108.188 97.1934 108.013 97.587 107.663 97.9182C107.319 98.2431 106.904 98.4056 106.416 98.4056Z" fill="#9B5C49"/>
<path d="M114.376 106.475V115.023H111.573V100.627H114.263V102.97H114.441C114.773 102.208 115.291 101.595 115.997 101.133C116.71 100.671 117.606 100.439 118.687 100.439C119.668 100.439 120.527 100.646 121.265 101.058C122.002 101.464 122.574 102.07 122.98 102.876C123.386 103.682 123.589 104.679 123.589 105.866V115.023H120.787V106.204C120.787 105.16 120.515 104.345 119.971 103.757C119.428 103.164 118.681 102.867 117.731 102.867C117.081 102.867 116.503 103.007 115.997 103.289C115.497 103.57 115.101 103.982 114.807 104.526C114.52 105.063 114.376 105.713 114.376 106.475Z" fill="#9B5C49"/>
</svg>
