<svg width="271" height="271" viewBox="0 0 271 271" fill="none" xmlns="http://www.w3.org/2000/svg">
<circle cx="135.898" cy="135.099" r="131.598" stroke="#9B5C49" stroke-width="7"/>
<line x1="0.799805" y1="139.238" x2="83.7011" y2="139.238" stroke="#9B5C49" stroke-width="4"/>
<line x1="188.098" y1="139.238" x2="270.999" y2="139.238" stroke="#9B5C49" stroke-width="4"/>
<path d="M124.708 145C123.389 145 122.224 144.771 121.212 144.314C120.206 143.857 119.417 143.227 118.847 142.424C118.276 141.62 117.994 140.706 118 139.68C117.994 138.877 118.157 138.139 118.488 137.465C118.825 136.786 119.282 136.22 119.859 135.769C120.436 135.312 121.08 135.022 121.791 134.898V134.787C120.853 134.558 120.101 134.052 119.537 133.267C118.973 132.482 118.693 131.58 118.7 130.561C118.693 129.591 118.948 128.726 119.463 127.966C119.985 127.2 120.699 126.597 121.607 126.158C122.515 125.72 123.549 125.5 124.708 125.5C125.856 125.5 126.88 125.723 127.782 126.168C128.69 126.606 129.405 127.209 129.926 127.975C130.447 128.735 130.711 129.597 130.717 130.561C130.711 131.58 130.423 132.482 129.852 133.267C129.282 134.052 128.54 134.558 127.625 134.787V134.898C128.331 135.022 128.966 135.312 129.53 135.769C130.101 136.22 130.555 136.786 130.892 137.465C131.236 138.139 131.411 138.877 131.417 139.68C131.411 140.706 131.122 141.62 130.552 142.424C129.981 143.227 129.19 143.857 128.178 144.314C127.172 144.771 126.015 145 124.708 145ZM124.708 142.655C125.488 142.655 126.162 142.525 126.733 142.266C127.303 142 127.745 141.633 128.058 141.163C128.371 140.687 128.53 140.131 128.536 139.495C128.53 138.834 128.359 138.25 128.021 137.743C127.69 137.237 127.239 136.838 126.668 136.548C126.098 136.257 125.445 136.112 124.708 136.112C123.966 136.112 123.307 136.257 122.73 136.548C122.153 136.838 121.699 137.237 121.368 137.743C121.037 138.25 120.874 138.834 120.88 139.495C120.874 140.131 121.025 140.687 121.331 141.163C121.644 141.633 122.089 142 122.666 142.266C123.242 142.525 123.923 142.655 124.708 142.655ZM124.708 133.823C125.334 133.823 125.889 133.696 126.374 133.443C126.859 133.19 127.239 132.838 127.515 132.386C127.797 131.935 127.941 131.407 127.948 130.802C127.941 130.209 127.8 129.69 127.524 129.245C127.254 128.8 126.877 128.457 126.392 128.216C125.908 127.969 125.346 127.845 124.708 127.845C124.058 127.845 123.488 127.969 122.997 128.216C122.512 128.457 122.135 128.8 121.865 129.245C121.595 129.69 121.463 130.209 121.469 130.802C121.463 131.407 121.598 131.935 121.874 132.386C122.15 132.838 122.531 133.19 123.015 133.443C123.506 133.696 124.07 133.823 124.708 133.823Z" fill="#9B5C49"/>
<path d="M134.75 144.741V130.505H137.502V144.741H134.75ZM136.14 128.309C135.661 128.309 135.25 128.148 134.907 127.827C134.569 127.499 134.4 127.11 134.4 126.659C134.4 126.202 134.569 125.812 134.907 125.491C135.25 125.164 135.661 125 136.14 125C136.618 125 137.026 125.164 137.363 125.491C137.707 125.812 137.879 126.202 137.879 126.659C137.879 127.11 137.707 127.499 137.363 127.827C137.026 128.148 136.618 128.309 136.14 128.309Z" fill="#9B5C49"/>
<path d="M143.954 136.288V144.741H141.203V130.505H143.844V132.822H144.019C144.344 132.068 144.853 131.463 145.546 131.006C146.246 130.548 147.126 130.32 148.187 130.32C149.15 130.32 149.994 130.524 150.718 130.931C151.442 131.333 152.003 131.932 152.402 132.729C152.801 133.526 153 134.512 153 135.686V144.741H150.249V136.019C150.249 134.988 149.982 134.181 149.448 133.601C148.914 133.014 148.181 132.72 147.249 132.72C146.611 132.72 146.043 132.859 145.546 133.137C145.056 133.415 144.666 133.823 144.378 134.361C144.096 134.892 143.954 135.534 143.954 136.288Z" fill="#9B5C49"/>
</svg>
